<svg width="96" height="96" xmlns="http://www.w3.org/2000/svg" xmlns:xlink="http://www.w3.org/1999/xlink" xml:space="preserve" overflow="hidden"><g transform="translate(-582 -180)"><path d="M672.6 260 633.5 192C632 189.3 628.1 189.3 626.6 192L587.4 260C585.9 262.7 587.8 266 590.9 266L630 266 669.1 266C672.2 266 674.1 262.7 672.6 260ZM627 208 633 208 633 243 627 243 627 208ZM630 257C627.2 257 625 254.8 625 252 625 249.2 627.2 247 630 247 632.8 247 635 249.2 635 252 635 254.8 632.8 257 630 257Z" fill="#FF0000"/></g></svg>